HIERARCHY
ROOT Hips
{
  OFFSET 13.9192 87.0099 7.45665
  CHANNELS 6 Xposition Yposition Zposition Zrotation Xrotation Yrotation
  JOINT RightUpLeg
  {
    OFFSET -9.25892 -1.51126 0.0103963
    CHANNELS 3 Zrotation Xrotation Yrotation
    JOINT RightLeg
    {
      OFFSET -0.0493687 -41.9019 0.103893
      CHANNELS 3 Zrotation Xrotation Yrotation
      JOINT RightFoot
      {
        OFFSET -1.32222 -41.6903 -0.651221
        CHANNELS 3 Zrotation Xrotation Yrotation
        End Site
        {
          OFFSET 0 -7.69 17.5
        }
      }
    }
  }
  JOINT LeftUpLeg
  {
    OFFSET 9.27814 -1.57439 0.0532125
    CHANNELS 3 Zrotation Xrotation Yrotation
    JOINT LeftLeg
    {
      OFFSET 0.0812204 -41.881 0.0464493
      CHANNELS 3 Zrotation Xrotation Yrotation
      JOINT LeftFoot
      {
        OFFSET -0.0110097 -42.3775 0.673629
        CHANNELS 3 Zrotation Xrotation Yrotation
        End Site
        {
          OFFSET 0 -7.69 17.5
        }
      }
    }
  }
  JOINT Spine
  {
    OFFSET 0.0235844 14.3019 0.0112981
    CHANNELS 3 Zrotation Xrotation Yrotation
    JOINT Spine1
    {
      OFFSET 0.0175769 9.71285 0.00895779
      CHANNELS 3 Zrotation Xrotation Yrotation
      JOINT Spine2
      {
        OFFSET 0.0285364 10.1117 0.00103808
        CHANNELS 3 Zrotation Xrotation Yrotation
        JOINT Spine3
        {
          OFFSET 0.0259409 9.72657 0.0104237
          CHANNELS 3 Zrotation Xrotation Yrotation
          JOINT Neck
          {
            OFFSET -0.0111787 10.3773 0.0255796
            CHANNELS 3 Zrotation Xrotation Yrotation
            JOINT Head
            {
              OFFSET -0.00267722 9.48908 0.0510269
              CHANNELS 3 Zrotation Xrotation Yrotation
              End Site
              {
                OFFSET 0 15.95 0
              }
            }
          }
          JOINT RightShoulder
          {
            OFFSET -3.1909 6.94591 0.0199124
            CHANNELS 3 Zrotation Xrotation Yrotation
            JOINT RightArm
            {
              OFFSET -12.7524 0.0197095 0.0110528
              CHANNELS 3 Zrotation Xrotation Yrotation
              JOINT RightForeArm
              {
                OFFSET -26.4891 -0.0606575 0.0254635
                CHANNELS 3 Zrotation Xrotation Yrotation
                JOINT RightHand
                {
                  OFFSET -26.017 -0.0465962 -0.00264686
                  CHANNELS 3 Zrotation Xrotation Yrotation
                  JOINT RightHandThumb1
                  {
                    OFFSET -2.48905 0.190105 3.12053
                    CHANNELS 3 Zrotation Xrotation Yrotation
                    JOINT RightHandThumb2
                    {
                      OFFSET -3.68274 0 0
                      CHANNELS 3 Zrotation Xrotation Yrotation
                      JOINT RightHandThumb3
                      {
                        OFFSET -2.55832 0 0
                        CHANNELS 3 Zrotation Xrotation Yrotation
                        End Site
                        {
                          OFFSET -2.194 0 0
                        }
                      }
                    }
                  }
                  JOINT RightInHandIndex
                  {
                    OFFSET -3.22368 0.508421 1.97842
                    CHANNELS 3 Zrotation Xrotation Yrotation
                    JOINT RightHandIndex1
                    {
                      OFFSET -5.21684 -0.091368 0.999158
                      CHANNELS 3 Zrotation Xrotation Yrotation
                      JOINT RightHandIndex2
                      {
                        OFFSET -3.61937 0 0
                        CHANNELS 3 Zrotation Xrotation Yrotation
                        JOINT RightHandIndex3
                        {
                          OFFSET -2.0521 0 0
                          CHANNELS 3 Zrotation Xrotation Yrotation
                          End Site
                          {
                            OFFSET -1.805 0 0
                          }
                        }
                      }
                    }
                  }
                  JOINT RightInHandMiddle
                  {
                    OFFSET -3.38211 0.517263 0.756737
                    CHANNELS 3 Zrotation Xrotation Yrotation
                    JOINT RightHandMiddle1
                    {
                      OFFSET -5.17411 -0.084 0.313895
                      CHANNELS 3 Zrotation Xrotation Yrotation
                      JOINT RightHandMiddle2
                      {
                        OFFSET -3.94947 0 0
                        CHANNELS 3 Zrotation Xrotation Yrotation
                        JOINT RightHandMiddle3
                        {
                          OFFSET -2.47579 0 0
                          CHANNELS 3 Zrotation Xrotation Yrotation
                          End Site
                          {
                            OFFSET -1.975 0 0
                          }
                        }
                      }
                    }
                  }
                  JOINT RightInHandRing
                  {
                    OFFSET -3.36516 0.537895 -0.128947
                    CHANNELS 3 Zrotation Xrotation Yrotation
                    JOINT RightHandRing1
                    {
                      OFFSET -4.63474 -0.022105 -0.478947
                      CHANNELS 3 Zrotation Xrotation Yrotation
                      JOINT RightHandRing2
                      {
                        OFFSET -3.44238 0 0
                        CHANNELS 3 Zrotation Xrotation Yrotation
                        JOINT RightHandRing3
                        {
                          OFFSET -2.3881 0 0
                          CHANNELS 3 Zrotation Xrotation Yrotation
                          End Site
                          {
                            OFFSET -1.857 0 0
                          }
                        }
                      }
                    }
                  }
                  JOINT RightInHandPinky
                  {
                    OFFSET -3.16105 0.469368 -1.20179
                    CHANNELS 3 Zrotation Xrotation Yrotation
                    JOINT RightHandPinky1
                    {
                      OFFSET -4.14105 -0.022105 -1.09053
                      CHANNELS 3 Zrotation Xrotation Yrotation
                      JOINT RightHandPinky2
                      {
                        OFFSET -2.75653 0 0
                        CHANNELS 3 Zrotation Xrotation Yrotation
                        JOINT RightHandPinky3
                        {
                          OFFSET -1.74189 0 0
                          CHANNELS 3 Zrotation Xrotation Yrotation
                          End Site
                          {
                            OFFSET -1.645 0 0
                          }
                        }
                      }
                    }
                  }
                }
              }
            }
          }
          JOINT LeftShoulder
          {
            OFFSET 3.2161 6.92611 -0.00186679
            CHANNELS 3 Zrotation Xrotation Yrotation
            JOINT LeftArm
            {
              OFFSET 12.7484 -0.0283569 -0.0302446
              CHANNELS 3 Zrotation Xrotation Yrotation
              JOINT LeftForeArm
              {
                OFFSET 26.4766 -0.0880322 -0.0033192
                CHANNELS 3 Zrotation Xrotation Yrotation
                JOINT LeftHand
                {
                  OFFSET 26.0079 -0.0456134 -0.0735001
                  CHANNELS 3 Zrotation Xrotation Yrotation
                  JOINT LeftHandThumb1
                  {
                    OFFSET 2.48905 0.190105 3.12053
                    CHANNELS 3 Zrotation Xrotation Yrotation
                    JOINT LeftHandThumb2
                    {
                      OFFSET 3.68274 0 0
                      CHANNELS 3 Zrotation Xrotation Yrotation
                      JOINT LeftHandThumb3
                      {
                        OFFSET 2.55832 0 0
                        CHANNELS 3 Zrotation Xrotation Yrotation
                        End Site
                        {
                          OFFSET 2.194 0 0
                        }
                      }
                    }
                  }
                  JOINT LeftInHandIndex
                  {
                    OFFSET 3.22368 0.508421 1.97842
                    CHANNELS 3 Zrotation Xrotation Yrotation
                    JOINT LeftHandIndex1
                    {
                      OFFSET 5.21684 -0.091368 0.999158
                      CHANNELS 3 Zrotation Xrotation Yrotation
                      JOINT LeftHandIndex2
                      {
                        OFFSET 3.61937 0 0
                        CHANNELS 3 Zrotation Xrotation Yrotation
                        JOINT LeftHandIndex3
                        {
                          OFFSET 2.0521 0 0
                          CHANNELS 3 Zrotation Xrotation Yrotation
                          End Site
                          {
                            OFFSET 1.805 0 0
                          }
                        }
                      }
                    }
                  }
                  JOINT LeftInHandMiddle
                  {
                    OFFSET 3.38211 0.517263 0.756737
                    CHANNELS 3 Zrotation Xrotation Yrotation
                    JOINT LeftHandMiddle1
                    {
                      OFFSET 5.17411 -0.084 0.313895
                      CHANNELS 3 Zrotation Xrotation Yrotation
                      JOINT LeftHandMiddle2
                      {
                        OFFSET 3.94947 0 0
                        CHANNELS 3 Zrotation Xrotation Yrotation
                        JOINT LeftHandMiddle3
                        {
                          OFFSET 2.47579 0 0
                          CHANNELS 3 Zrotation Xrotation Yrotation
                          End Site
                          {
                            OFFSET 1.975 0 0
                          }
                        }
                      }
                    }
                  }
                  JOINT LeftInHandRing
                  {
                    OFFSET 3.36516 0.537895 -0.128947
                    CHANNELS 3 Zrotation Xrotation Yrotation
                    JOINT LeftHandRing1
                    {
                      OFFSET 4.63474 -0.022105 -0.478947
                      CHANNELS 3 Zrotation Xrotation Yrotation
                      JOINT LeftHandRing2
                      {
                        OFFSET 3.44238 0 0
                        CHANNELS 3 Zrotation Xrotation Yrotation
                        JOINT LeftHandRing3
                        {
                          OFFSET 2.3881 0 0
                          CHANNELS 3 Zrotation Xrotation Yrotation
                          End Site
                          {
                            OFFSET 1.857 0 0
                          }
                        }
                      }
                    }
                  }
                  JOINT LeftInHandPinky
                  {
                    OFFSET 3.16105 0.469368 -1.20179
                    CHANNELS 3 Zrotation Xrotation Yrotation
                    JOINT LeftHandPinky1
                    {
                      OFFSET 4.14105 -0.022105 -1.09053
                      CHANNELS 3 Zrotation Xrotation Yrotation
                      JOINT LeftHandPinky2
                      {
                        OFFSET 2.75653 0 0
                        CHANNELS 3 Zrotation Xrotation Yrotation
                        JOINT LeftHandPinky3
                        {
                          OFFSET 1.74189 0 0
                          CHANNELS 3 Zrotation Xrotation Yrotation
                          End Site
                          {
                            OFFSET 1.645 0 0
                          }
                        }
                      }
                    }
                  }
                }
              }
            }
          }
        }
      }
    }
  }
}
MOTION
Frames: 2
Frame Time: 0.00833333
1.516966599999999744e+03 8.602949999999999875e+01 7.799699999999999633e+00 2.559570000000000078e+01 -1.473439999999999905e+01 -1.515740000000000123e+02 4.410580000000000922e+01 -5.203349999999999653e+01 5.805280000000000484e+01 -2.895740000000000425e+00 3.499649999999999039e+01 -1.618959999999999866e+01 7.677419999999999689e+00 1.083420000000001604e-02 3.873190000000000310e+01 5.109140000000000015e+01 -4.085480000000000445e+01 3.986760000000000304e+01 -4.853979999999999961e+00 4.431380000000000052e+01 1.138710000000000200e+01 -1.338400000000000212e+01 -1.145539999999999914e+01 6.746929999999998984e+00 -3.523569999999999869e+00 1.090529999999999866e+01 -2.418210000000000193e+01 -1.283459999999999823e+00 2.185670000000000446e+00 -6.516149999999999665e+00 -1.984760000000000080e+00 3.250160000000000160e+00 -1.033070000000000199e+01 -9.063260000000001870e-01 -2.872839999999999838e-01 2.454779999999999962e+00 -4.263960000000000861e+00 -1.473970000000000002e+00 2.657620000000000005e+01 -1.574629999999999797e+01 3.736190000000000566e+00 3.063339999999999819e+01 4.770880000000000010e+00 -2.711450000000000138e+00 -7.114110000000000156e+00 3.762180000000000746e+01 -3.333950000000000102e+01 -9.152770000000000294e+00 6.017720000000000624e+01 -6.232829999999998094e+00 1.314650000000000318e+02 -1.131379999999999875e+01 1.011740000000000173e+01 -4.839660000000000295e+00 2.818400000000000105e+01 1.072940000000000005e+01 1.915919999999999845e+01 1.024970000000000087e-14 3.180549999999999193e-15 -1.000000000000000000e+01 -2.107979999999999989e-15 6.361110000000001319e-15 -1.000000000000000000e+01 3.180549999999999982e-15 3.180549999999999982e-15 7.951390000000005143e-16 1.998179999999999978e+01 8.718970000000000331e-01 2.396399999999999864e+00 2.400000000000000000e+01 2.385420000000000017e-15 -3.180549999999999193e-15 2.000000000000000000e+01 1.987850000000000145e-15 -9.541659999999997356e-15 3.180549999999999982e-15 3.180549999999999982e-15 7.951390000000005143e-16 2.000000000000000000e+01 -6.361110000000001319e-15 -3.180550000000000771e-15 2.400000000000000000e+01 -6.361109999999999741e-15 -4.770830000000000256e-15 2.000000000000000000e+01 -1.689670000000000495e-15 -3.180550000000000771e-15 3.180549999999999982e-15 3.180549999999999982e-15 7.951390000000005143e-16 1.997479999999999833e+01 -1.025649999999999951e+00 -2.819380000000000219e+00 2.400000000000000000e+01 5.565969999999999999e-15 -1.590280000000002641e-15 2.000000000000000000e+01 -6.361109999999999741e-15 -3.180550000000000771e-15 3.180549999999999982e-15 3.180549999999999982e-15 7.951390000000005143e-16 1.978150000000000119e+01 -3.009479999999999933e+00 -8.305149999999999366e+00 2.400000000000000000e+01 -7.156249999999999484e-15 1.590279999999999485e-15 2.000000000000000000e+01 -7.454429999999999923e-16 -6.361109999999996586e-15 8.367540000000001754e+00 -2.498529999999999518e+01 -8.146039999999999281e+00 1.235509999999999842e+01 3.729379999999999029e+01 -1.394879999999999995e+02 2.992200000000000415e+01 -9.336610000000002074e+00 -3.215850000000000364e+01 2.621359999999999957e+01 5.925689999999999458e+00 2.276640000000000441e+01 -2.818400000000000105e+01 1.072940000000000005e+01 -1.915919999999999845e+01 4.283610000000001778e-15 3.180549999999999193e-15 1.000000000000000000e+01 -4.351259999999998844e-15 6.361109999999998952e-15 1.000000000000000000e+01 -1.590279999999999880e-15 -1.590280000000000274e-15 0.000000000000000000e+00 -1.998179999999999978e+01 8.718970000000000331e-01 -2.396399999999999864e+00 -2.400000000000000000e+01 3.180550000000000771e-15 1.590279999999999880e-15 -2.000000000000000000e+01 -6.361109999999999741e-15 -8.945309999999993888e-16 -1.590279999999999880e-15 -1.590280000000000274e-15 0.000000000000000000e+00 -2.000000000000000000e+01 3.180550000000000376e-15 3.180550000000000771e-15 -2.400000000000000000e+01 0.000000000000000000e+00 -7.951389999999999226e-15 -2.000000000000000000e+01 -9.541660000000003667e-15 -1.341800000000000228e-15 -1.590279999999999880e-15 -1.590280000000000274e-15 0.000000000000000000e+00 -1.997479999999999833e+01 -1.025649999999999951e+00 2.819380000000000219e+00 -2.400000000000000000e+01 0.000000000000000000e+00 -3.180549999999999982e-15 -2.000000000000000000e+01 -3.180549999999999193e-15 2.683589999999999890e-15 -1.590279999999999880e-15 -1.590280000000000274e-15 0.000000000000000000e+00 -1.978150000000000119e+01 -3.009479999999999933e+00 8.305149999999999366e+00 -2.400000000000000000e+01 3.180549999999999982e-15 -6.361109999999999741e-15 -2.000000000000000000e+01 0.000000000000000000e+00 3.180549999999999982e-15
1.516947200000000066e+03 8.603409999999998092e+01 7.848200000000001175e+00 2.565190000000000126e+01 -1.470670000000000144e+01 -1.513760000000000332e+02 4.404160000000000252e+01 -5.217999999999999261e+01 5.798729999999999762e+01 -2.833700000000000330e+00 3.509150000000001057e+01 -1.623839999999999861e+01 7.695540000000000269e+00 -6.071540000000008597e-02 3.866069999999999851e+01 5.101400000000001000e+01 -4.108709999999999951e+01 3.985150000000000858e+01 -4.701039999999999885e+00 4.432479999999999620e+01 1.129920000000000258e+01 -1.334380000000000166e+01 -1.140310000000000201e+01 6.678520000000000678e+00 -3.444480000000000430e+00 1.092040000000000077e+01 -2.399109999999999943e+01 -1.261039999999999939e+00 2.201010000000000133e+00 -6.462299999999999933e+00 -1.949249999999999705e+00 3.281200000000000117e+00 -1.025740000000000229e+01 -9.068559999999999954e-01 -2.750810000000000199e-01 2.447839999999999794e+00 -4.216639999999999944e+00 -1.412930000000000241e+00 2.616769999999999996e+01 -1.583439999999999870e+01 3.841089999999999893e+00 3.080180000000000007e+01 4.707810000000000272e+00 -2.673140000000000072e+00 -7.191560000000000841e+00 3.891960000000000264e+01 -3.300480000000000302e+01 -8.645620000000000971e+00 5.990520000000000067e+01 -6.285150000000001569e+00 1.313729999999999905e+02 -1.174020000000000330e+01 1.002590000000000003e+01 -4.559319999999999595e+00 2.818400000000000105e+01 1.072940000000000005e+01 1.915919999999999845e+01 3.790440000000000116e-15 3.180549999999999587e-15 -1.000000000000000000e+01 -6.739650000000000563e-15 -1.590280000000000668e-15 -1.000000000000000000e+01 0.000000000000000000e+00 0.000000000000000000e+00 3.180549999999999982e-15 1.998179999999999978e+01 8.718970000000000331e-01 2.396399999999999864e+00 2.400000000000000000e+01 3.180549999999999982e-15 6.361109999999999741e-15 2.000000000000000000e+01 -4.373260000000001174e-15 9.541660000000000512e-15 0.000000000000000000e+00 0.000000000000000000e+00 3.180549999999999982e-15 2.000000000000000000e+01 1.590280000000000274e-15 7.951389999999999226e-15 2.400000000000000000e+01 -3.180549999999999193e-15 -1.590279999999999485e-15 2.000000000000000000e+01 -1.292100000000000623e-15 0.000000000000000000e+00 0.000000000000000000e+00 0.000000000000000000e+00 3.180549999999999982e-15 1.997479999999999833e+01 -1.025649999999999951e+00 -2.819380000000000219e+00 2.400000000000000000e+01 -7.951389999999999226e-16 0.000000000000000000e+00 2.000000000000000000e+01 -7.951389999999999226e-16 0.000000000000000000e+00 0.000000000000000000e+00 0.000000000000000000e+00 3.180549999999999982e-15 1.978150000000000119e+01 -3.009479999999999933e+00 -8.305149999999999366e+00 2.400000000000000000e+01 7.951390000000001198e-16 1.590279999999999485e-15 2.000000000000000000e+01 2.186629999999999798e-15 0.000000000000000000e+00 8.267179999999999751e+00 -2.479510000000000502e+01 -8.188439999999998165e+00 1.238830000000000098e+01 3.745320000000000249e+01 -1.394120000000000061e+02 3.008200000000000074e+01 -9.110580000000000567e+00 -3.284630000000000649e+01 2.661189999999999856e+01 5.978690000000000282e+00 2.386690000000000111e+01 -2.818400000000000105e+01 1.072940000000000005e+01 -1.915919999999999845e+01 1.614809999999999905e-15 0.000000000000000000e+00 1.000000000000000000e+01 3.161980000000000155e-15 9.541660000000000512e-15 1.000000000000000000e+01 -3.180550000000000376e-15 0.000000000000000000e+00 -1.272219999999999993e-14 -1.998179999999999978e+01 8.718970000000000331e-01 -2.396399999999999864e+00 -2.400000000000000000e+01 -9.541659999999998934e-15 4.770830000000000256e-15 -2.000000000000000000e+01 -3.180549999999999587e-15 1.341799999999999834e-15 -3.180550000000000376e-15 0.000000000000000000e+00 -1.272219999999999993e-14 -2.000000000000000000e+01 0.000000000000000000e+00 9.541660000000000512e-15 -2.400000000000000000e+01 -3.180549999999999982e-15 1.113189999999999773e-14 -2.000000000000000000e+01 1.590280000000000116e-14 -1.938150000000000146e-15 -3.180550000000000376e-15 0.000000000000000000e+00 -1.272219999999999993e-14 -1.997479999999999833e+01 -1.025649999999999951e+00 2.819380000000000219e+00 -2.400000000000000000e+01 0.000000000000000000e+00 3.180549999999999193e-15 -2.000000000000000000e+01 -1.272219999999999993e-14 2.584199999999999669e-15 -3.180550000000000376e-15 0.000000000000000000e+00 -1.272219999999999993e-14 -1.978150000000000119e+01 -3.009479999999999933e+00 8.305149999999999366e+00 -2.400000000000000000e+01 3.180549999999999982e-15 3.180549999999999193e-15 -2.000000000000000000e+01 -3.180550000000000376e-15 -3.180549999999999193e-15
